<svg xmlns="http://www.w3.org/2000/svg" width="805" height="600"><rect width="805" height="600" x="0" y="0" fill="#FFFFFF" id="backgorund"/><g id="viz"><clipPath id="serieClipPath"><rect x="-50" y="-10" width="805" height="600"/></clipPath><g transform="translate(0,0)"><g transform="translate(50,10)" clip-path="url(#serieClipPath)"><g id="axis"><g transform="translate(0,570)" fill="none" font-size="10" font-family="sans-serif" text-anchor="middle"><path class="domain" stroke="currentColor" d="M0,6V0H740V6"/><g class="tick" opacity="1" transform="translate(0,0)"><line stroke="currentColor" y2="6"/><text fill="currentColor" y="9" dy="0.71em">March</text></g><g class="tick" opacity="1" transform="translate(52.857142857142854,0)"><line stroke="currentColor" y2="6"/><text fill="currentColor" y="9" dy="0.71em">Thu 03</text></g><g class="tick" opacity="1" transform="translate(105.71428571428571,0)"><line stroke="currentColor" y2="6"/><text fill="currentColor" y="9" dy="0.71em">Sat 05</text></g><g class="tick" opacity="1" transform="translate(158.57142857142856,0)"><line stroke="currentColor" y2="6"/><text fill="currentColor" y="9" dy="0.71em">Mon 07</text></g><g class="tick" opacity="1" transform="translate(211.42857142857142,0)"><line stroke="currentColor" y2="6"/><text fill="currentColor" y="9" dy="0.71em">Wed 09</text></g><g class="tick" opacity="1" transform="translate(264.2857142857143,0)"><line stroke="currentColor" y2="6"/><text fill="currentColor" y="9" dy="0.71em">Fri 11</text></g><g class="tick" opacity="1" transform="translate(317.1428571428571,0)"><line stroke="currentColor" y2="6"/><text fill="currentColor" y="9" dy="0.71em">Mar 13</text></g><g class="tick" opacity="1" transform="translate(370,0)"><line stroke="currentColor" y2="6"/><text fill="currentColor" y="9" dy="0.71em">Tue 15</text></g><g class="tick" opacity="1" transform="translate(422.85714285714283,0)"><line stroke="currentColor" y2="6"/><text fill="currentColor" y="9" dy="0.71em">Thu 17</text></g><g class="tick" opacity="1" transform="translate(475.7142857142857,0)"><line stroke="currentColor" y2="6"/><text fill="currentColor" y="9" dy="0.71em">Sat 19</text></g><g class="tick" opacity="1" transform="translate(528.5714285714286,0)"><line stroke="currentColor" y2="6"/><text fill="currentColor" y="9" dy="0.71em">Mon 21</text></g><g class="tick" opacity="1" transform="translate(581.4285714285714,0)"><line stroke="currentColor" y2="6"/><text fill="currentColor" y="9" dy="0.71em">Wed 23</text></g><g class="tick" opacity="1" transform="translate(634.2857142857142,0)"><line stroke="currentColor" y2="6"/><text fill="currentColor" y="9" dy="0.71em">Fri 25</text></g><g class="tick" opacity="1" transform="translate(687.1428571428571,0)"><line stroke="currentColor" y2="6"/><text fill="currentColor" y="9" dy="0.71em">Mar 27</text></g><g class="tick" opacity="1" transform="translate(740,0)"><line stroke="currentColor" y2="6"/><text fill="currentColor" y="9" dy="0.71em">Tue 29</text></g><text x="740" dy="-5" text-anchor="end" style="font-family: Arial, sans-serif; font-size: 12px; fill: rgb(123, 123, 123); font-weight: bold;">日期</text></g><g transform="translate(0,0)" fill="none" font-size="10" font-family="sans-serif" text-anchor="end"><path class="domain" stroke="currentColor" d="M0,570V0"/><g class="tick" opacity="1" transform="translate(0,570)"><line stroke="currentColor" x2="-6"/><text fill="currentColor" x="-9" dy="0.32em">500</text></g><g class="tick" opacity="1" transform="translate(0,498.75)"><line stroke="currentColor" x2="-6"/><text fill="currentColor" x="-9" dy="0.32em">505</text></g><g class="tick" opacity="1" transform="translate(0,427.5)"><line stroke="currentColor" x2="-6"/><text fill="currentColor" x="-9" dy="0.32em">510</text></g><g class="tick" opacity="1" transform="translate(0,356.25)"><line stroke="currentColor" x2="-6"/><text fill="currentColor" x="-9" dy="0.32em">515</text></g><g class="tick" opacity="1" transform="translate(0,285)"><line stroke="currentColor" x2="-6"/><text fill="currentColor" x="-9" dy="0.32em">520</text></g><g class="tick" opacity="1" transform="translate(0,213.75)"><line stroke="currentColor" x2="-6"/><text fill="currentColor" x="-9" dy="0.32em">525</text></g><g class="tick" opacity="1" transform="translate(0,142.5)"><line stroke="currentColor" x2="-6"/><text fill="currentColor" x="-9" dy="0.32em">530</text></g><g class="tick" opacity="1" transform="translate(0,71.25)"><line stroke="currentColor" x2="-6"/><text fill="currentColor" x="-9" dy="0.32em">535</text></g><g class="tick" opacity="1" transform="translate(0,0)"><line stroke="currentColor" x2="-6"/><text fill="currentColor" x="-9" dy="0.32em">540</text></g><text x="4" text-anchor="start" dominant-baseline="hanging" style="font-family: Arial, sans-serif; font-size: 12px; fill: rgb(123, 123, 123); font-weight: bold;">開盤價</text></g></g><g id="viz"><g><path d="M26.428571428571427,299.25C39.64285714285714,299.25,39.64285714285714,228,52.857142857142854,228C92.5,228,92.5,285,132.14285714285714,285C145.35714285714283,285,145.35714285714283,270.75,158.57142857142856,270.75C171.78571428571428,270.75,171.78571428571428,270.75,185,270.75C198.21428571428572,270.75,198.21428571428572,213.75,211.42857142857142,213.75C224.64285714285714,213.75,224.64285714285714,356.25,237.85714285714286,356.25C277.5,356.25,277.5,384.75,317.1428571428571,384.75C330.35714285714283,384.75,330.35714285714283,413.25,343.57142857142856,413.25C356.7857142857143,413.25,356.7857142857143,356.25,370,356.25C383.2142857142857,356.25,383.2142857142857,498.75,396.42857142857144,498.75C409.6428571428571,498.75,409.6428571428571,342,422.85714285714283,342C462.5,342,462.5,327.75,502.14285714285717,327.75C515.3571428571429,327.75,515.3571428571429,356.25,528.5714285714286,356.25C541.7857142857142,356.25,541.7857142857142,228,555,228C568.2142857142858,228,568.2142857142858,171.00000000000003,581.4285714285714,171.00000000000003C594.6428571428571,171.00000000000003,594.6428571428571,56.999999999999986,607.8571428571429,56.999999999999986C647.5,56.999999999999986,647.5,99.75000000000003,687.1428571428571,99.75000000000003C700.3571428571429,99.75000000000003,700.3571428571429,213.75,713.5714285714286,213.75C726.7857142857142,213.75,726.7857142857142,99.75000000000003,740,99.75000000000003" stroke="#1f77b4" fill="none"/><text font-family="sans-serif" font-size="10" class="labels" x="607.8571428571429" y="56.999999999999986" dx="0" dy="-4" text-anchor="middle"/></g></g></g><text y="4" x="4" style="font-family: Arial, sans-serif; font-size: 12px; fill: black; font-weight: bold; dominant-baseline: hanging;"/></g><g id="grid"><rect x="0" y="0" width="805" height="600" fill="none" stroke="#ccc"/></g></g></svg>